<?xml version="1.0" encoding="utf-8"?>
<svg xmlns="http://www.w3.org/2000/svg" height="512pt" version="1.1" viewBox="0 0 512 512" width="512pt">
<path d="M 0.00 0.00 L 512.00 0.00 L 512.00 512.00 L 0.00 512.00 L 0.00 0.00 Z" fill="#050738" opacity="1.00" stroke="#050738" stroke-width="0.25"/>
<path d="M 107.42 239.45 C 111.87 235.36 119.65 237.61 121.75 243.13 C 123.66 246.49 121.85 250.23 119.96 253.12 C 116.26 255.98 110.33 257.02 106.90 253.18 C 102.37 249.88 102.84 242.50 107.42 239.45 Z" fill="#0de1fe" opacity="1.00" stroke="#0de1fe" stroke-width="0.25"/>
<path d="M 260.75 249.82 C 262.58 249.85 264.40 249.84 266.23 249.81 C 266.39 256.27 266.31 262.72 266.24 269.18 C 269.06 267.38 270.97 264.53 273.20 262.10 C 274.00 261.23 274.85 260.40 275.75 259.63 C 277.85 259.78 279.95 259.80 282.06 259.85 C 279.10 263.04 276.12 266.22 272.98 269.24 C 274.01 271.92 276.28 273.80 277.85 276.14 C 279.36 278.37 280.98 280.54 282.88 282.46 C 280.54 282.59 278.20 282.61 275.87 282.48 C 273.75 279.17 271.27 276.11 269.00 272.90 C 265.55 275.04 266.29 279.02 266.29 282.47 C 264.39 282.51 262.49 282.53 260.59 282.55 C 260.77 271.64 260.48 260.73 260.75 249.82 Z" fill="#fdfdff" opacity="1.00" stroke="#fdfdff" stroke-width="0.25"/>
<path d="M 388.59 249.81 C 390.54 249.79 392.51 249.84 394.40 250.39 C 394.01 261.09 394.31 271.81 394.19 282.52 C 392.45 282.53 390.72 282.58 388.99 282.47 C 388.85 281.78 388.58 280.41 388.44 279.72 C 385.05 283.97 378.32 284.24 374.41 280.57 C 368.08 275.51 369.04 264.24 376.17 260.35 C 380.33 257.99 385.51 259.51 388.54 262.97 C 388.63 258.58 388.57 254.20 388.59 249.81 Z" fill="#fcfefd" opacity="1.00" stroke="#fcfefd" stroke-width="0.25"/>
<path d="M 166.36 251.19 C 168.59 251.14 170.83 251.11 173.03 251.54 C 175.80 258.32 179.99 264.41 183.16 271.01 C 186.87 264.55 190.76 258.13 193.72 251.29 C 195.95 251.19 198.17 251.16 200.39 251.14 C 200.48 261.61 200.38 272.08 200.34 282.54 C 198.42 282.54 196.51 282.54 194.60 282.52 C 194.65 275.29 194.93 268.04 194.53 260.83 C 191.48 266.44 188.43 272.05 185.45 277.70 C 183.96 277.64 182.47 277.57 180.99 277.44 C 178.29 271.77 175.16 266.30 171.96 260.91 C 171.73 268.11 171.98 275.33 171.80 282.54 C 169.97 282.54 168.13 282.54 166.31 282.55 C 166.32 272.10 166.26 261.65 166.36 251.19 Z" fill="#fcfefd" opacity="1.00" stroke="#fcfefd" stroke-width="0.25"/>
<path d="M 289.40 251.15 C 295.20 251.37 301.05 250.74 306.82 251.52 C 313.17 252.87 316.26 261.12 312.64 266.41 C 311.44 268.44 309.28 269.55 307.35 270.75 C 310.16 274.44 312.30 278.59 314.80 282.50 C 312.50 282.60 310.19 282.59 307.91 282.29 C 306.58 278.39 303.88 275.17 302.22 271.42 C 299.91 271.12 297.57 271.11 295.24 271.21 C 295.17 274.94 295.16 278.68 295.28 282.42 C 293.32 282.52 291.36 282.56 289.41 282.56 C 289.39 272.09 289.41 261.62 289.40 251.15 Z" fill="#fdfeff" opacity="1.00" stroke="#fdfeff" stroke-width="0.25"/>
<path d="M 130.36 256.73 C 131.68 256.75 132.99 256.77 134.31 256.79 C 135.05 263.31 134.11 270.46 129.61 275.53 C 126.23 280.15 120.83 282.69 115.31 283.67 C 115.30 285.57 115.29 287.47 115.29 289.38 C 113.77 289.38 112.26 289.38 110.74 289.39 C 110.71 287.50 110.68 285.61 110.64 283.73 C 99.02 282.22 90.02 270.62 91.57 258.97 C 91.13 256.36 93.96 256.51 95.73 256.83 C 95.77 261.58 95.52 266.74 98.27 270.88 C 101.62 276.99 108.98 280.60 115.86 279.31 C 120.87 278.52 125.12 275.08 127.77 270.88 C 130.41 266.66 130.19 261.51 130.36 256.73 Z" fill="#7c59f0" opacity="1.00" stroke="#7c59f0" stroke-width="0.25"/>
<path d="M 295.23 256.10 C 299.27 256.55 303.91 255.04 307.39 257.74 C 308.33 260.25 308.96 263.70 306.05 265.20 C 302.60 266.42 298.82 265.74 295.24 265.82 C 295.21 262.58 295.24 259.34 295.23 256.10 Z" fill="#050638" opacity="1.00" stroke="#050638" stroke-width="0.25"/>
<path d="M 103.49 256.81 C 109.82 256.80 116.16 256.81 122.50 256.82 C 122.38 261.14 123.58 266.07 120.95 269.88 C 117.26 275.75 107.13 275.02 104.22 268.74 C 102.75 264.96 103.40 260.77 103.49 256.81 Z" fill="#0db4fd" opacity="1.00" stroke="#0db4fd" stroke-width="0.25"/>
<path d="M 208.56 263.57 C 211.67 259.50 217.43 258.40 222.17 259.79 C 228.38 261.85 232.16 269.78 229.17 275.76 C 227.13 281.04 220.97 284.17 215.49 282.82 C 211.64 282.28 208.68 279.39 206.73 276.20 C 206.45 275.11 206.14 274.02 205.81 272.95 C 205.73 269.64 206.29 266.12 208.56 263.57 Z" fill="#fcfeff" opacity="1.00" stroke="#fcfeff" stroke-width="0.25"/>
<path d="M 239.19 261.21 C 244.38 257.82 252.03 258.82 255.89 263.78 C 254.56 264.79 253.24 265.81 251.96 266.89 C 249.46 263.72 244.88 263.30 241.65 265.59 C 239.69 268.24 238.64 271.94 240.45 274.96 C 242.31 278.30 246.89 278.97 250.13 277.35 C 250.57 276.81 251.46 275.75 251.91 275.22 C 253.30 276.15 254.71 277.08 256.12 278.00 C 251.67 284.86 240.55 284.65 236.00 278.01 C 232.17 272.80 233.69 264.65 239.19 261.21 Z" fill="#fcfeff" opacity="1.00" stroke="#fcfeff" stroke-width="0.25"/>
<path d="M 318.93 276.98 C 314.59 269.70 320.41 259.13 328.97 259.25 C 333.16 258.75 336.77 261.25 339.27 264.36 C 340.67 267.09 340.95 270.17 340.61 273.19 C 334.75 273.15 328.88 273.20 323.02 273.14 C 323.71 277.86 329.04 279.52 333.16 278.42 C 334.19 277.65 335.26 276.92 336.32 276.20 C 336.84 276.64 337.88 277.53 338.40 277.97 C 338.54 278.42 338.83 279.33 338.97 279.79 C 333.16 284.88 322.72 284.17 318.93 276.98 Z" fill="#fcfeff" opacity="1.00" stroke="#fcfeff" stroke-width="0.25"/>
<path d="M 345.39 262.80 C 349.07 259.21 354.58 258.61 359.40 259.75 C 362.55 260.70 365.13 263.58 365.21 266.95 C 365.50 272.16 365.26 277.38 365.37 282.59 C 362.92 282.46 359.47 283.57 359.40 279.93 C 356.02 284.89 347.06 284.01 344.64 278.48 C 343.32 275.15 344.82 270.77 348.32 269.52 C 352.09 267.89 356.22 268.90 360.02 269.83 C 359.71 267.91 360.02 265.21 357.86 264.29 C 354.49 262.68 350.77 263.98 347.78 265.79 C 346.99 264.78 346.20 263.79 345.39 262.80 Z" fill="#fcfeff" opacity="1.00" stroke="#fcfeff" stroke-width="0.25"/>
<path d="M 398.64 259.59 C 400.18 259.64 401.72 259.65 403.28 259.66 C 405.67 265.11 407.60 270.75 409.95 276.22 C 412.17 270.72 414.32 265.20 416.54 259.70 C 418.36 259.71 420.18 259.71 422.00 259.71 C 418.60 268.62 414.86 277.39 411.24 286.21 C 410.52 288.22 409.12 289.85 407.63 291.32 C 404.77 292.11 401.80 292.47 398.92 291.54 C 399.35 290.08 399.78 288.61 400.22 287.15 C 403.98 288.79 406.83 285.46 407.38 282.03 C 403.57 275.22 401.76 267.39 397.52 260.85 C 397.80 260.54 398.36 259.90 398.64 259.59 Z" fill="#fcfefd" opacity="1.00" stroke="#fcfefd" stroke-width="0.25"/>
<path d="M 323.01 269.40 C 322.97 264.57 328.84 261.74 332.75 264.25 C 334.87 265.04 335.25 267.52 335.85 269.41 C 331.57 269.45 327.28 269.48 323.01 269.40 Z" fill="#050536" opacity="1.00" stroke="#050536" stroke-width="0.25"/>
<path d="M 212.91 265.85 C 215.80 263.80 220.30 263.19 222.82 266.13 C 227.01 270.56 223.20 279.59 216.75 278.24 C 211.15 277.15 210.28 270.06 212.91 265.85 Z" fill="#06083a" opacity="1.00" stroke="#06083a" stroke-width="0.25"/>
<path d="M 378.45 265.34 C 380.29 263.61 383.00 264.19 385.27 264.41 C 389.57 267.28 389.96 273.95 386.11 277.35 C 383.23 278.79 380.06 278.37 377.57 276.39 C 375.32 273.08 375.11 268.00 378.45 265.34 Z" fill="#040735" opacity="1.00" stroke="#040735" stroke-width="0.25"/>
<path d="M 349.89 274.05 C 352.38 271.09 356.70 272.44 359.94 273.11 C 359.77 274.98 359.33 276.81 358.32 278.42 C 355.82 279.54 353.09 279.79 350.61 278.45 C 350.04 277.06 349.04 275.57 349.89 274.05 Z" fill="#060635" opacity="1.00" stroke="#060635" stroke-width="0.25"/>
</svg>