<svg width="32px" height="32px" viewBox="0 0 5.12 5.12" xmlns="http://www.w3.org/2000/svg" xmlns:xlink="http://www.w3.org/1999/xlink" aria-hidden="true" role="img" class="iconify iconify--noto" preserveAspectRatio="xMidYMid meet"><path d="M4.461 0.74c0 0 0 -0.001 -0.001 -0.002 -0.001 -0.01 -0.004 -0.02 -0.008 -0.03 -0.001 -0.002 -0.002 -0.004 -0.004 -0.007 -0.002 -0.003 -0.003 -0.006 -0.004 -0.008 -0.003 -0.005 -0.008 -0.009 -0.012 -0.013 -0.001 -0.001 -0.002 -0.002 -0.003 -0.003 -0.007 -0.007 -0.016 -0.012 -0.025 -0.016a0.04 0.04 0 0 1 -0.007 -0.003 0.104 0.104 0 0 0 -0.031 -0.006h-0.892c-0.012 0 -0.024 0.003 -0.035 0.007 -0.003 0.001 -0.006 0.003 -0.009 0.004 -0.008 0.004 -0.015 0.009 -0.021 0.015 -0.001 0.002 -0.004 0.002 -0.005 0.004 -0.001 0.001 -0.002 0.003 -0.002 0.004 -0.006 0.008 -0.011 0.016 -0.015 0.026 -0.001 0.002 -0.002 0.003 -0.003 0.005 0 0 0 0.001 0 0.001L2.56 3.406 1.736 0.72c0 0 0 -0.001 0 -0.001 -0.001 -0.002 -0.002 -0.004 -0.003 -0.005a0.096 0.096 0 0 0 -0.015 -0.026c-0.001 -0.001 -0.002 -0.003 -0.002 -0.004 -0.002 -0.002 -0.004 -0.002 -0.005 -0.004 -0.006 -0.006 -0.013 -0.011 -0.021 -0.015 -0.003 -0.002 -0.006 -0.003 -0.009 -0.004 -0.011 -0.004 -0.022 -0.007 -0.035 -0.007h-0.892c-0.011 0 -0.021 0.002 -0.031 0.006 -0.002 0.001 -0.004 0.002 -0.007 0.003 -0.01 0.004 -0.018 0.009 -0.026 0.016 -0.001 0.001 -0.002 0.002 -0.002 0.003 -0.004 0.004 -0.008 0.008 -0.012 0.013 -0.002 0.003 -0.003 0.006 -0.004 0.008 -0.001 0.002 -0.003 0.004 -0.004 0.007 -0.004 0.01 -0.007 0.019 -0.008 0.03 0 0 0 0.001 0 0.002l-0.338 3.998c-0.002 0.026 0.007 0.052 0.024 0.072 0.018 0.019 0.044 0.031 0.07 0.031h0.836c0.049 0 0.089 -0.037 0.094 -0.086l0.168 -1.704 0.646 1.728c0 0 0.001 0.001 0.001 0.002 0.003 0.008 0.007 0.015 0.012 0.022l0.001 0.001c0.001 0.002 0.003 0.003 0.004 0.004 0.005 0.005 0.01 0.01 0.015 0.014l0.007 0.005c0.005 0.003 0.011 0.006 0.016 0.008a0.092 0.092 0 0 0 0.033 0.007H2.872c0.009 0 0.018 -0.002 0.026 -0.004 0.002 -0.001 0.005 -0.002 0.007 -0.003 0.006 -0.002 0.011 -0.005 0.016 -0.008 0.002 -0.002 0.005 -0.003 0.007 -0.005 0.006 -0.004 0.01 -0.009 0.015 -0.014 0.001 -0.002 0.003 -0.003 0.004 -0.004 0 0 0.001 -0.001 0.001 -0.001q0.007 -0.01 0.012 -0.022c0 0 0 -0.001 0.001 -0.002l0.646 -1.728 0.168 1.704a0.095 0.095 0 0 0 0.094 0.086h0.836c0.026 0 0.052 -0.011 0.07 -0.031 0.018 -0.02 0.027 -0.046 0.025 -0.072z" fill="#40C0E7"/></svg>